<svg id="Capa_1" enable-background="new 0 0 512 512" height="512" viewBox="0 0 512 512" width="512" xmlns="http://www.w3.org/2000/svg"><path d="m466.387 187.287v33.298c0 11.829-9.589 15.415-21.418 15.415h-377.938c-11.829 0-21.418-3.586-21.418-15.415v-33.298z" fill="#bfdbff"/><path d="m335.648 187.287h-159.296c-11.694 0-21.174-9.48-21.174-21.173v-134.94c0-11.694 9.48-21.174 21.174-21.174h159.296c11.694 0 21.173 9.48 21.173 21.174v134.94c0 11.694-9.479 21.173-21.173 21.173z" fill="#ffda8f"/><path d="m282.795 61.443h-53.59c-11.297 0-20.455-9.158-20.455-20.454v-30.989h94.499v30.989c.001 11.296-9.157 20.454-20.454 20.454z" fill="#ffe6b4"/><path d="m210.794 502h-170.776v-41.414c0-14.713 11.927-26.639 26.639-26.639h378.685c14.712 0 26.639 11.927 26.639 26.639v41.414h-170.774" fill="#b6bccf"/><path d="m87.068 278.949h337.863v154.997h-337.863z" fill="#faf7f5"/><path d="m256 338.918c-52.482 0-95.028 42.545-95.028 95.028h190.055c.001-52.482-42.545-95.028-95.027-95.028z" fill="#bfdbff"/><path d="m256.184 431.945 28.816-41.612" fill="#bfdbff"/><path d="m208.751 236h94.499v42.949h-94.499z" fill="#b6bccf"/><path d="m256.18 512c-4.357 0-8.298-2.931-9.56-7.099-1.181-3.901.177-8.281 3.414-10.782 3.196-2.469 7.644-2.776 11.147-.772 3.622 2.071 5.591 6.341 4.839 10.443-.862 4.695-5.064 8.21-9.84 8.21z"/><path d="m445.343 423.946h-10.411v-144.997c0-5.522-4.477-10-10-10h-111.682v-22.949h131.719c29.153 0 31.418-19.453 31.418-25.415v-33.298c0-5.522-4.477-10-10-10h-101.636c1.337-3.47 2.07-7.237 2.07-11.173v-134.94c0-17.19-13.984-31.174-31.173-31.174h-159.296c-17.189 0-31.173 13.984-31.173 31.174v134.941c0 3.936.734 7.703 2.07 11.173h-101.636c-5.523 0-10 4.478-10 10v33.298c0 5.962 2.266 25.415 31.418 25.415h131.719v22.949h-111.682c-5.523 0-10 4.478-10 10v144.997h-10.411c-20.203 0-36.639 16.437-36.639 36.64v41.413c0 5.522 4.477 10 10 10h170.776c5.523 0 10-4.478 10-10s-4.477-10-10-10h-160.776v-31.414c0-9.175 7.464-16.64 16.639-16.64h378.686c9.175 0 16.639 7.465 16.639 16.64v31.414h-160.775c-5.523 0-10 4.478-10 10s4.477 10 10 10h170.775c5.523 0 10-4.478 10-10v-41.414c0-20.203-16.436-36.64-36.639-36.64zm-152.093-403.946v20.988c0 5.765-4.69 10.455-10.455 10.455h-53.59c-5.765 0-10.455-4.691-10.455-10.455v-20.988zm-128.071 146.114v-134.94c0-6.161 5.012-11.174 11.173-11.174h22.398v20.988c0 16.793 13.662 30.455 30.455 30.455h53.59c16.793 0 30.455-13.662 30.455-30.455v-20.988h22.398c6.161 0 11.173 5.013 11.173 11.174v134.941c0 6.161-5.012 11.173-11.173 11.173h-159.296c-6.161-.001-11.173-5.013-11.173-11.174zm-109.566 54.471v-23.298h400.774v23.298c0 2.156 0 5.415-11.418 5.415h-377.938c-11.418 0-11.418-3.259-11.418-5.415zm163.138 25.415h74.499v22.949h-74.499zm55.136 177.946 19.335-27.92c3.144-4.541 2.012-10.771-2.528-13.914-4.541-3.146-10.77-2.014-13.915 2.527l-27.22 39.307h-78.003c4.965-42.19 40.941-75.028 84.443-75.028s79.478 32.838 84.443 75.028zm86.668 0c-5.052-53.24-50.015-95.028-104.555-95.028s-99.504 41.788-104.555 95.028h-54.377v-134.997h317.863v134.997z"/></svg>
